<svg width="21" height="21" viewBox="0 0 21 21" fill="none" xmlns="http://www.w3.org/2000/svg">
<g id="CaretDown">
<path id="Vector" d="M17.1925 8.31412L10.9425 14.5641C10.8845 14.6222 10.8156 14.6683 10.7397 14.6998C10.6638 14.7312 10.5825 14.7474 10.5003 14.7474C10.4182 14.7474 10.3369 14.7312 10.261 14.6998C10.1851 14.6683 10.1162 14.6222 10.0582 14.5641L3.80816 8.31412C3.69088 8.19684 3.625 8.03778 3.625 7.87193C3.625 7.70608 3.69088 7.54702 3.80816 7.42974C3.92544 7.31247 4.0845 7.24658 4.25035 7.24658C4.4162 7.24658 4.57526 7.31247 4.69253 7.42974L10.5003 13.2383L16.3082 7.42974C16.3662 7.37167 16.4352 7.32561 16.511 7.29418C16.5869 7.26276 16.6682 7.24658 16.7503 7.24658C16.8325 7.24658 16.9138 7.26276 16.9897 7.29418C17.0655 7.32561 17.1345 7.37167 17.1925 7.42974C17.2506 7.48781 17.2967 7.55675 17.3281 7.63262C17.3595 7.70849 17.3757 7.78981 17.3757 7.87193C17.3757 7.95405 17.3595 8.03537 17.3281 8.11124C17.2967 8.18711 17.2506 8.25605 17.1925 8.31412Z" fill="#E4E5E2"/>
</g>
</svg>
